<?xml version="1.0" encoding="utf-8"?>
<!-- Generator: Adobe Illustrator 26.1.0, SVG Export Plug-In . SVG Version: 6.00 Build 0)  -->
<svg version="1.1" id="Calque_1" xmlns="http://www.w3.org/2000/svg" xmlns:xlink="http://www.w3.org/1999/xlink" x="0px" y="0px"
	 viewBox="0 0 37 37" style="enable-background:new 0 0 37 37;" xml:space="preserve">
<style type="text/css">
	.st0{opacity:0.71;}
	.st1{fill-rule:evenodd;clip-rule:evenodd;fill:#FFFFFF;}
</style>
<desc>Created with Sketch.</desc>
<g id="Personal-2-dark" class="st0">
	<g id="about" transform="translate(-261.000000, -990.000000)">
		<g transform="translate(261.000000, 990.000000)">
			<g id="section-title">
				<g id="dots-bg">
					<path id="Rectangle" class="st1" d="M2,0L2,0c1.1,0,2,0.9,2,2l0,0c0,1.1-0.9,2-2,2l0,0C0.9,4,0,3.1,0,2l0,0C0,0.9,0.9,0,2,0z"
						/>
					<path id="Rectangle-Copy" class="st1" d="M13,0L13,0c1.1,0,2,0.9,2,2l0,0c0,1.1-0.9,2-2,2l0,0c-1.1,0-2-0.9-2-2l0,0
						C11,0.9,11.9,0,13,0z"/>
					<path id="Rectangle-Copy-2" class="st1" d="M24,0L24,0c1.1,0,2,0.9,2,2l0,0c0,1.1-0.9,2-2,2l0,0c-1.1,0-2-0.9-2-2l0,0
						C22,0.9,22.9,0,24,0z"/>
					<path id="Rectangle-Copy-3" class="st1" d="M35,0L35,0c1.1,0,2,0.9,2,2l0,0c0,1.1-0.9,2-2,2l0,0c-1.1,0-2-0.9-2-2l0,0
						C33,0.9,33.9,0,35,0z"/>
					<path id="Rectangle-Copy-7" class="st1" d="M2,11L2,11c1.1,0,2,0.9,2,2l0,0c0,1.1-0.9,2-2,2l0,0c-1.1,0-2-0.9-2-2l0,0
						C0,11.9,0.9,11,2,11z"/>
					<path id="Rectangle-Copy-6" class="st1" d="M13,11L13,11c1.1,0,2,0.9,2,2l0,0c0,1.1-0.9,2-2,2l0,0c-1.1,0-2-0.9-2-2l0,0
						C11,11.9,11.9,11,13,11z"/>
					<path id="Rectangle-Copy-5" class="st1" d="M24,11L24,11c1.1,0,2,0.9,2,2l0,0c0,1.1-0.9,2-2,2l0,0c-1.1,0-2-0.9-2-2l0,0
						C22,11.9,22.9,11,24,11z"/>
					<path id="Rectangle-Copy-4" class="st1" d="M35,11L35,11c1.1,0,2,0.9,2,2l0,0c0,1.1-0.9,2-2,2l0,0c-1.1,0-2-0.9-2-2l0,0
						C33,11.9,33.9,11,35,11z"/>
					<path id="Rectangle-Copy-15" class="st1" d="M2,22L2,22c1.1,0,2,0.9,2,2l0,0c0,1.1-0.9,2-2,2l0,0c-1.1,0-2-0.9-2-2l0,0
						C0,22.9,0.9,22,2,22z"/>
					<path id="Rectangle-Copy-14" class="st1" d="M13,22L13,22c1.1,0,2,0.9,2,2l0,0c0,1.1-0.9,2-2,2l0,0c-1.1,0-2-0.9-2-2l0,0
						C11,22.9,11.9,22,13,22z"/>
					<path id="Rectangle-Copy-13" class="st1" d="M24,22L24,22c1.1,0,2,0.9,2,2l0,0c0,1.1-0.9,2-2,2l0,0c-1.1,0-2-0.9-2-2l0,0
						C22,22.9,22.9,22,24,22z"/>
					<path id="Rectangle-Copy-12" class="st1" d="M35,22L35,22c1.1,0,2,0.9,2,2l0,0c0,1.1-0.9,2-2,2l0,0c-1.1,0-2-0.9-2-2l0,0
						C33,22.9,33.9,22,35,22z"/>
					<path id="Rectangle-Copy-11" class="st1" d="M2,33L2,33c1.1,0,2,0.9,2,2l0,0c0,1.1-0.9,2-2,2l0,0c-1.1,0-2-0.9-2-2l0,0
						C0,33.9,0.9,33,2,33z"/>
					<path id="Rectangle-Copy-10" class="st1" d="M13,33L13,33c1.1,0,2,0.9,2,2l0,0c0,1.1-0.9,2-2,2l0,0c-1.1,0-2-0.9-2-2l0,0
						C11,33.9,11.9,33,13,33z"/>
					<path id="Rectangle-Copy-9" class="st1" d="M24,33L24,33c1.1,0,2,0.9,2,2l0,0c0,1.1-0.9,2-2,2l0,0c-1.1,0-2-0.9-2-2l0,0
						C22,33.9,22.9,33,24,33z"/>
					<path id="Rectangle-Copy-8" class="st1" d="M35,33L35,33c1.1,0,2,0.9,2,2l0,0c0,1.1-0.9,2-2,2l0,0c-1.1,0-2-0.9-2-2l0,0
						C33,33.9,33.9,33,35,33z"/>
				</g>
			</g>
		</g>
	</g>
</g>
</svg>
